<?xml version="1.0" encoding="UTF-8" standalone="no"?>
<!-- Created with Inkscape (http://www.inkscape.org/) -->

<svg
   xmlns:dc="http://purl.org/dc/elements/1.1/"
   xmlns:cc="http://creativecommons.org/ns#"
   xmlns:rdf="http://www.w3.org/1999/02/22-rdf-syntax-ns#"
   xmlns:svg="http://www.w3.org/2000/svg"
   xmlns="http://www.w3.org/2000/svg"
   xmlns:sodipodi="http://sodipodi.sourceforge.net/DTD/sodipodi-0.dtd"
   xmlns:inkscape="http://www.inkscape.org/namespaces/inkscape"
   width="128mm"
   height="128mm"
   viewBox="0 0 128 128"
   version="1.1"
   id="svg8"
   inkscape:version="0.92.4 5da689c313, 2019-01-14"
   sodipodi:docname="seed.svg"
   inkscape:export-filename="/home/z3r0/Pictures/inscape/seed.png"
   inkscape:export-xdpi="123"
   inkscape:export-ydpi="123">
  <defs
     id="defs2" />
  <sodipodi:namedview
     id="base"
     pagecolor="#ffffff"
     bordercolor="#666666"
     borderopacity="1.0"
     inkscape:pageopacity="0.0"
     inkscape:pageshadow="2"
     inkscape:zoom="1.4"
     inkscape:cx="214.09429"
     inkscape:cy="388.34762"
     inkscape:document-units="mm"
     inkscape:current-layer="g844"
     showgrid="false"
     inkscape:pagecheckerboard="true"
     inkscape:window-width="1920"
     inkscape:window-height="1021"
     inkscape:window-x="1920"
     inkscape:window-y="0"
     inkscape:window-maximized="1"
     fit-margin-top="0"
     fit-margin-left="0"
     fit-margin-right="0"
     fit-margin-bottom="0" />
  <metadata
     id="metadata5">
    <rdf:RDF>
      <cc:Work
         rdf:about="">
        <dc:format>image/svg+xml</dc:format>
        <dc:type
           rdf:resource="http://purl.org/dc/dcmitype/StillImage" />
        <dc:title></dc:title>
      </cc:Work>
    </rdf:RDF>
  </metadata>
  <g
     inkscape:label="Layer 1"
     inkscape:groupmode="layer"
     id="layer1"
     transform="translate(-91.562752,-35.259199)">
    <g
       id="g844"
       transform="translate(10.772321,-5.858631)"
       style="fill-rule:nonzero"
       inkscape:export-xdpi="123"
       inkscape:export-ydpi="123">
      <path
         style="fill:#efeed0;fill-rule:nonzero;stroke-width:0.88826817"
         d="m 147.59143,160.70093 c -3.80899,-1.20057 -11.44149,-8.67682 -13.77722,-13.49515 -1.16552,-2.40431 -1.82674,-5.99414 -2.04516,-11.10334 -0.27703,-6.48029 0.009,-8.43012 2.01633,-13.75883 2.93237,-7.78323 6.01368,-13.07272 10.36575,-17.79415 l 3.39638,-3.68464 -7.05575,-1.516219 c -9.33441,-2.00585 -20.33317,-7.550927 -24.39888,-12.300792 -5.55793,-6.493201 -6.31111,-13.307136 -2.38343,-21.562684 4.12351,-8.667178 17.11549,-19.342477 20.01333,-16.444622 0.49496,0.494949 3.89155,0.899932 7.54797,0.899932 11.49031,0 17.18309,4.19013 17.36111,12.778497 0.0844,4.073475 0.29029,4.468059 2.74191,5.255541 3.62594,1.164691 5.75956,3.189204 5.75956,5.465082 0,4.350748 -5.32605,5.428093 -10.07797,2.038588 -2.08993,-1.490763 -4.04336,-1.998604 -7.6874,-1.998604 -4.55941,0 -4.90291,-0.149313 -5.1467,-2.237101 -0.17963,-1.538377 0.76111,-3.431479 3.01195,-6.061075 3.07731,-3.595145 3.18272,-3.913083 1.76141,-5.313176 -1.41476,-1.393646 -1.58582,-1.389466 -2.66574,0.06521 -1.43294,1.930267 -4.2131,1.983924 -7.75992,0.149816 -1.494,-0.772575 -3.60766,-1.180982 -4.69703,-0.907561 -5.23505,1.313904 -12.04029,9.637386 -12.04029,14.72644 0,5.388462 2.8953,7.322279 19.98604,13.348984 10.899,3.843337 20.31474,8.143525 21.29147,9.723895 0.30062,0.48641 1.95014,1.55041 3.6656,2.36446 8.95994,4.251769 14.97566,33.119509 9.41948,45.201549 -2.44229,5.31083 -7.33084,10.59042 -12.07015,13.03563 -2.81336,1.45155 -12.56484,4.54002 -13.24499,4.19491 -0.0983,-0.0498 -1.57775,-0.53163 -3.28766,-1.0706 z"
         id="path880"
         inkscape:connector-curvature="0" />
      <path
         style="fill:#fcf3ad;fill-rule:nonzero;stroke-width:0.88826817"
         d="m 144.69639,158.39288 c -4.40375,-2.8332 -9.23765,-8.83347 -11.02761,-13.6884 -1.34146,-3.63848 -1.44942,-14.23998 -0.19162,-18.81712 1.80255,-6.55949 7.13811,-16.27212 11.20522,-20.39748 2.21801,-2.24982 3.85176,-4.27154 3.63055,-4.49276 -0.2212,-0.22133 -4.20702,-1.367359 -8.85735,-2.547009 -18.47391,-4.68631 -27.39488,-12.460233 -27.39488,-23.87253 0,-6.811467 3.25951,-12.817424 10.37039,-19.108411 6.52373,-5.771513 10.01763,-7.90616 10.84089,-6.623428 0.30321,0.472463 3.74906,1.042597 7.65744,1.266944 12.10083,0.694671 17.31113,4.726726 17.31791,13.401709 0.003,3.273757 0.35958,4.35372 1.55777,4.712122 4.06084,1.214698 6.01039,2.768837 6.27113,4.999215 0.19438,1.662385 -0.2727,2.648279 -1.58804,3.352215 -2.29294,1.227137 -4.55271,0.566106 -8.01027,-2.343257 -2.36889,-1.99329 -2.96916,-2.126136 -5.63338,-1.246877 -7.1944,2.374379 -8.47992,-3.391444 -1.96217,-8.800678 1.92566,-1.598153 1.71002,-4.233363 -0.44061,-5.384332 -1.49615,-0.800726 -2.09657,-0.622708 -3.4225,1.014749 l -1.60803,1.985838 -3.82681,-1.994626 c -2.40209,-1.252063 -4.60859,-1.798428 -5.92671,-1.467623 -2.97176,0.745885 -8.97852,6.412426 -11.00212,10.379015 -4.46554,8.753166 -0.82516,12.254945 20.31966,19.545977 11.66386,4.021882 13.63573,4.954748 20.77761,9.829778 6.73605,4.597989 7.96108,6.286729 10.94064,15.082169 3.24787,9.58756 4.03805,22.30369 1.80389,29.03005 -3.02682,9.11298 -13.45061,17.32685 -23.39892,18.43819 -3.5894,0.40095 -4.76728,0.0851 -8.40208,-2.25344 z m 7.17936,-42.27998 c 0.23412,-5.35265 0.0397,-8.43505 -0.532,-8.43505 -1.36982,0 -3.32494,13.14332 -2.46488,16.57009 1.13717,4.53083 2.61883,0.50885 2.99688,-8.13504 z"
         id="path878"
         inkscape:connector-curvature="0" />
      <path
         style="fill:#d5d7cc;fill-rule:nonzero;stroke-width:0.88826817"
         d="m 144.69639,158.39288 c -4.40375,-2.8332 -9.23765,-8.83347 -11.02761,-13.6884 -1.34399,-3.64533 -1.44881,-14.2526 -0.1858,-18.80198 1.88131,-6.77657 6.47445,-15.14689 10.85904,-19.78898 2.42772,-2.5703 4.22384,-4.86348 3.99138,-5.09593 -0.23246,-0.23241 -4.22749,-1.387829 -8.87782,-2.567479 -18.47391,-4.68631 -27.39488,-12.460233 -27.39488,-23.87253 0,-6.811467 3.25951,-12.817424 10.37039,-19.108411 6.52373,-5.771513 10.01763,-7.90616 10.84089,-6.623428 0.30321,0.472463 3.74906,1.042597 7.65744,1.266944 12.10083,0.694671 17.31113,4.726726 17.31791,13.401709 0.003,3.273757 0.35958,4.35372 1.55777,4.712122 4.06084,1.214698 6.01039,2.768837 6.27113,4.999215 0.19438,1.662385 -0.2727,2.648279 -1.58804,3.352215 -2.29294,1.227137 -4.55271,0.566106 -8.01027,-2.343257 -2.36889,-1.99329 -2.96916,-2.126136 -5.63338,-1.246877 -7.1944,2.374379 -8.47992,-3.391444 -1.96217,-8.800678 1.92566,-1.598153 1.71002,-4.233363 -0.44061,-5.384332 -1.49615,-0.800726 -2.09657,-0.622708 -3.4225,1.014749 l -1.60803,1.985838 -3.82681,-1.994626 c -2.40209,-1.252063 -4.60859,-1.798428 -5.92671,-1.467623 -2.97176,0.745885 -8.97852,6.412426 -11.00212,10.379015 -4.46554,8.753166 -0.82516,12.254945 20.31966,19.545977 11.66386,4.021882 13.63573,4.954748 20.77761,9.829778 6.73605,4.597989 7.96108,6.286729 10.94064,15.082169 3.24787,9.58756 4.03805,22.30369 1.80389,29.03005 -3.02682,9.11298 -13.45061,17.32685 -23.39892,18.43819 -3.5894,0.40095 -4.76728,0.0851 -8.40208,-2.25344 z m 10.72283,-11.86618 c 0.35352,-1.83567 -2.21073,-3.0726 -3.56411,-1.71924 -1.35337,1.35338 -0.11643,3.91764 1.71924,3.56412 0.85082,-0.16391 1.68102,-0.99405 1.84487,-1.84488 z m 15.61629,-2.94663 c 0.29653,-0.77277 0.53916,-2.06077 0.53916,-2.8622 0,-1.21643 -0.31129,-1.14586 -1.88434,0.42719 -1.03638,1.03638 -1.61238,2.32437 -1.27999,2.8622 0.86133,1.39365 1.99737,1.20878 2.62517,-0.42719 z m 0.0609,-27.87734 c -1.28953,-4.1694 -2.70878,-7.96047 -3.1539,-8.4246 -1.61007,-1.67883 -0.74679,5.35613 1.40598,11.45749 1.19778,3.39477 2.48844,8.59114 2.86812,11.54749 l 0.69036,5.37519 0.26701,-6.1874 c 0.20445,-4.73775 -0.28229,-7.96352 -2.07757,-13.76817 z m -18.43295,9.73262 c 1.14668,-2.26641 1.59851,-16.43229 0.60657,-19.01724 -0.77836,-2.02837 -2.76213,-1.72682 -4.32428,0.65733 -1.89745,2.89586 -2.91583,17.8188 -1.34515,19.71135 1.57295,1.8953 3.70862,1.32521 5.06286,-1.35144 z m -11.73415,-2.65694 c 0.30194,-0.48853 0.12567,-0.88825 -0.39171,-0.88825 -0.51738,0 -0.94069,0.39972 -0.94069,0.88825 0,0.48855 0.17628,0.88827 0.39171,0.88827 0.21543,0 0.63875,-0.39972 0.94069,-0.88827 z m 4.70782,-9.9486 c 1.4452,-1.44519 1.34716,-3.37541 -0.17144,-3.37541 -1.16387,0 -2.31571,1.80344 -2.31571,3.62571 0,1.13939 1.22027,1.01659 2.48715,-0.25028 z"
         id="path876"
         inkscape:connector-curvature="0" />
      <path
         style="fill:#fceb8a;fill-rule:nonzero;stroke-width:0.88826817"
         d="m 145.37075,158.44757 c -3.3501,-2.05106 -8.74963,-8.00061 -10.75895,-11.85493 -2.29784,-4.40775 -2.70319,-15.35944 -0.78694,-21.26191 2.55798,-7.87915 7.50237,-16.49566 11.67018,-20.33741 2.15892,-1.99002 3.7234,-3.94491 3.47661,-4.34423 -0.24678,-0.39929 -2.95668,-1.216459 -6.022,-1.815929 -18.76549,-3.66983 -30.80878,-13.245925 -30.86945,-24.545544 -0.0308,-5.741324 4.39225,-13.556536 10.88872,-19.23952 6.51212,-5.69668 9.72103,-7.619343 10.21971,-6.123318 0.19217,0.57653 2.20783,1.015656 4.66215,1.015656 6.93234,0 13.19983,1.717678 16.26698,4.458189 2.427,2.168513 2.85206,3.224103 3.24105,8.048624 0.42828,5.311917 0.57167,5.594554 3.30596,6.515989 4.3399,1.462537 5.97832,3.445227 4.74748,5.745075 -1.40201,2.619675 -4.38703,2.356753 -8.62477,-0.759734 -3.21447,-2.363929 -3.86899,-2.534443 -6.26188,-1.631213 -1.46971,0.55475 -3.33072,0.755932 -4.13559,0.447083 -1.84565,-0.708242 -1.89636,-3.593533 -0.0895,-5.093083 2.52759,-2.097709 4.8554,-6.008476 4.35408,-7.314901 -0.27284,-0.711012 -1.49219,-1.746585 -2.70967,-2.301309 -2.84533,-1.296429 -3.01828,-1.276261 -3.01828,0.351704 0,2.278899 -2.47679,2.4792 -5.87369,0.474981 -2.73693,-1.614846 -3.66473,-1.75663 -6.14274,-0.938808 -3.89267,1.284696 -10.68172,8.676268 -11.99497,13.059523 -2.14518,7.159973 2.04351,10.600719 20.94346,17.203777 12.39421,4.330152 14.00031,5.083889 21.81438,10.237409 5.01716,3.308899 6.19711,4.611129 8.14967,8.994329 5.42235,12.17231 6.89755,25.72033 3.79514,34.85381 -4.18139,12.31001 -21.45697,21.5373 -30.24712,16.15569 z m 10.04847,-11.92087 c 0.35352,-1.83567 -2.21073,-3.0726 -3.56411,-1.71924 -1.35337,1.35338 -0.11643,3.91764 1.71924,3.56412 0.85082,-0.16391 1.68102,-0.99405 1.84487,-1.84488 z m 15.61629,-2.94663 c 0.29653,-0.77277 0.53916,-2.06077 0.53916,-2.8622 0,-1.21643 -0.31129,-1.14586 -1.88434,0.42719 -1.03638,1.03638 -1.61238,2.32437 -1.27999,2.8622 0.86133,1.39365 1.99737,1.20878 2.62517,-0.42719 z m 0.0609,-27.87734 c -1.28953,-4.1694 -2.70878,-7.96047 -3.1539,-8.4246 -1.61007,-1.67883 -0.74679,5.35613 1.40598,11.45749 1.19778,3.39477 2.48844,8.59114 2.86812,11.54749 l 0.69036,5.37519 0.26701,-6.1874 c 0.20445,-4.73775 -0.28229,-7.96352 -2.07757,-13.76817 z m -18.43295,9.73262 c 1.14668,-2.26641 1.59851,-16.43229 0.60657,-19.01724 -0.77836,-2.02837 -2.76213,-1.72682 -4.32428,0.65733 -1.89745,2.89586 -2.91583,17.8188 -1.34515,19.71135 1.57295,1.8953 3.70862,1.32521 5.06286,-1.35144 z m -11.73415,-2.65694 c 0.30194,-0.48853 0.12567,-0.88825 -0.39171,-0.88825 -0.51738,0 -0.94069,0.39972 -0.94069,0.88825 0,0.48855 0.17628,0.88827 0.39171,0.88827 0.21543,0 0.63875,-0.39972 0.94069,-0.88827 z m 4.70782,-9.9486 c 1.4452,-1.44519 1.34716,-3.37541 -0.17144,-3.37541 -1.16387,0 -2.31571,1.80344 -2.31571,3.62571 0,1.13939 1.22027,1.01659 2.48715,-0.25028 z"
         id="path874"
         inkscape:connector-curvature="0" />
      <path
         style="fill:#fae47b;fill-rule:nonzero;stroke-width:0.88826817"
         d="m 145.37075,158.44757 c -3.3501,-2.05106 -8.74963,-8.00061 -10.75895,-11.85493 -0.89446,-1.71576 -1.69999,-5.76073 -1.93457,-9.7144 -0.44445,-7.49114 0.77613,-12.42234 5.32733,-21.52248 2.52676,-5.05227 9.28063,-12.77029 10.7668,-12.30379 0.40469,0.1269 0.60455,-0.44434 0.44413,-1.26966 -0.21102,-1.08578 -2.50172,-2.046269 -8.28608,-3.474359 -18.91684,-4.67033 -28.78945,-12.890423 -28.84921,-24.020334 -0.0308,-5.741324 4.39225,-13.556536 10.88872,-19.23952 6.51212,-5.69668 9.72103,-7.619343 10.21971,-6.123318 0.19217,0.57653 2.20783,1.015656 4.66215,1.015656 6.93234,0 13.19983,1.717678 16.26698,4.458189 2.427,2.168513 2.85206,3.224103 3.24105,8.048624 0.42828,5.311917 0.57167,5.594554 3.30596,6.515989 4.3399,1.462537 5.97832,3.445227 4.74748,5.745075 -1.40201,2.619675 -4.38703,2.356753 -8.62477,-0.759734 -3.21447,-2.363929 -3.86899,-2.534443 -6.26188,-1.631213 -1.46971,0.55475 -3.33072,0.755932 -4.13559,0.447083 -1.84565,-0.708242 -1.89636,-3.593533 -0.0895,-5.093083 2.52759,-2.097709 4.8554,-6.008476 4.35408,-7.314901 -0.27284,-0.711012 -1.49219,-1.746585 -2.70967,-2.301309 -2.84533,-1.296429 -3.01828,-1.276261 -3.01828,0.351704 0,2.278899 -2.47679,2.4792 -5.87369,0.474981 -2.73693,-1.614846 -3.66473,-1.75663 -6.14274,-0.938808 -3.89267,1.284696 -10.68172,8.676268 -11.99497,13.059523 -2.14518,7.159973 2.04351,10.600719 20.94346,17.203777 12.39421,4.330152 14.00031,5.083889 21.81438,10.237409 5.01716,3.308899 6.19711,4.611129 8.14967,8.994329 5.42235,12.17231 6.89755,25.72033 3.79514,34.85381 -4.18139,12.31001 -21.45697,21.5373 -30.24712,16.15569 z m 2.06907,-9.33405 c 0.22599,-1.17346 -0.13851,-1.53798 -1.312,-1.31199 -0.89371,0.17222 -1.76575,1.04415 -1.93787,1.93787 -0.22598,1.17348 0.13854,1.538 1.31201,1.31199 0.89371,-0.17223 1.76575,-1.04416 1.93786,-1.93787 z m 8.02385,-0.79741 c 0.39718,-1.09922 0.54967,-3.65018 0.33886,-5.66878 -0.30457,-2.91656 -0.69255,-3.58933 -1.88943,-3.27635 -0.82838,0.21654 -1.89013,1.26863 -2.35944,2.33779 -0.46931,1.06919 -1.75267,2.33853 -2.8519,2.82079 -2.6559,1.16519 -2.53041,1.71707 0.88827,3.90643 3.70831,2.37488 4.98164,2.3489 5.87364,-0.11985 z m 15.94751,-3.9972 c 1.65843,-3.27452 3.05346,-12.88169 2.58062,-17.77195 -0.55986,-5.79027 -4.98262,-20.64563 -6.14666,-20.64563 -1.84848,0 -1.68222,3.44888 0.6038,12.52676 3.28214,13.03353 2.95,19.4514 -1.19853,23.15811 -1.57267,1.40518 -2.61852,2.94464 -2.3241,3.42103 0.92093,1.49011 5.635,0.98975 6.48487,-0.68832 z m -23.11865,-6.27414 c 2.62312,-0.25603 2.85197,-0.53161 2.85197,-3.43456 0,-2.9289 0.16817,-3.12406 2.33512,-2.70984 l 2.33512,0.4464 -0.63983,-12.91766 c -0.35191,-7.10473 -0.8459,-13.45466 -1.09775,-14.11101 -0.83793,-2.18359 -4.22166,-1.23371 -8.0406,2.25715 -4.19362,3.83334 -4.87953,6.71264 -1.79146,7.52018 2.19098,0.57296 1.37897,1.97174 -1.44501,2.48923 -2.58029,0.47281 -5.28434,4.61085 -4.5418,6.95038 0.47296,1.49018 1.14057,1.87162 2.74041,1.56579 1.43774,-0.27483 2.97434,0.36279 4.79805,1.991 2.95002,2.63378 3.37511,4.55382 1.37562,6.21326 -1.05234,0.87337 -1.91857,0.70721 -4.44134,-0.85196 l -3.13402,-1.93692 v 2.35152 c 0,2.72548 1.45823,5.77944 3.4761,7.27995 1.16192,0.864 1.49348,0.70804 1.88842,-0.88827 0.34679,-1.40176 1.26638,-2.01314 3.331,-2.21464 z m 18.8408,-11.71329 c 0,-0.48853 -0.17626,-0.88825 -0.39172,-0.88825 -0.21553,0 -0.63875,0.39972 -0.94069,0.88825 -0.30193,0.48855 -0.12565,0.88827 0.39171,0.88827 0.51738,0 0.9407,-0.39972 0.9407,-0.88827 z"
         id="path872"
         inkscape:connector-curvature="0" />
      <path
         style="fill:#ccd1b0;fill-rule:nonzero;stroke-width:0.88826817"
         d="m 145.37075,158.44757 c -3.3501,-2.05106 -8.74963,-8.00061 -10.75895,-11.85493 -0.89446,-1.71576 -1.69999,-5.76073 -1.93457,-9.7144 -0.44445,-7.49114 0.77613,-12.42234 5.32733,-21.52248 2.52676,-5.05227 9.28063,-12.77029 10.7668,-12.30379 0.40469,0.1269 0.60455,-0.44434 0.44413,-1.26966 -0.21102,-1.08578 -2.50172,-2.046269 -8.28608,-3.474359 -18.91684,-4.67033 -28.78945,-12.890423 -28.84921,-24.020334 -0.0308,-5.741324 4.39225,-13.556536 10.88872,-19.23952 6.51212,-5.69668 9.72103,-7.619343 10.21971,-6.123318 0.19217,0.57653 2.20783,1.015656 4.66215,1.015656 6.93234,0 13.19983,1.717678 16.26698,4.458189 2.427,2.168513 2.85206,3.224103 3.24105,8.048624 0.42828,5.311917 0.57167,5.594554 3.30596,6.515989 4.3399,1.462537 5.97832,3.445227 4.74748,5.745075 -1.40201,2.619675 -4.38703,2.356753 -8.62477,-0.759734 -3.21447,-2.363929 -3.86899,-2.534443 -6.26188,-1.631213 -1.46971,0.55475 -3.33072,0.755932 -4.13559,0.447083 -1.84565,-0.708242 -1.89636,-3.593533 -0.0895,-5.093083 2.52759,-2.097709 4.8554,-6.008476 4.35408,-7.314901 -0.27284,-0.711012 -1.49219,-1.746585 -2.70967,-2.301309 -2.84533,-1.296429 -3.01828,-1.276261 -3.01828,0.351704 0,2.278899 -2.47679,2.4792 -5.87369,0.474981 -2.73693,-1.614846 -3.66473,-1.75663 -6.14274,-0.938808 -3.89267,1.284696 -10.68172,8.676268 -11.99497,13.059523 -2.14518,7.159973 2.04351,10.600719 20.94346,17.203777 12.39421,4.330152 14.00031,5.083889 21.81438,10.237409 5.01716,3.308899 6.19711,4.611129 8.14967,8.994329 5.42235,12.17231 6.89755,25.72033 3.79514,34.85381 -4.18139,12.31001 -21.45697,21.5373 -30.24712,16.15569 z m 8.97575,-6.34256 c 1.94375,-3.63926 2.12225,-4.98252 2.06562,-15.54469 -0.0991,-18.48563 -1.16587,-31.54442 -2.65375,-32.48582 -2.19712,-1.39012 -3.42236,-0.9481 -7.31301,2.63816 -4.91351,4.52911 -9.5877,15.56903 -10.19695,24.08403 -0.38915,5.4389 -0.27156,5.96927 1.42173,6.41207 2.39766,0.62702 3.60583,4.99836 1.75782,6.36011 -0.7256,0.53465 -1.14539,1.48844 -0.93287,2.11954 0.27779,0.82484 0.70504,0.88296 1.51985,0.20672 1.24657,-1.03454 4.02341,-0.33063 4.02341,1.01996 0,0.46838 -0.40889,1.61565 -0.90864,2.54942 -0.76963,1.43809 -0.33498,2.11337 2.84112,4.41413 2.06237,1.49399 4.31188,2.60235 4.99891,2.46308 0.68703,-0.13924 2.20658,-2.04581 3.37676,-4.23671 z m -5.27463,1.17061 c -1.36924,-1.36925 -0.51868,-3.07396 1.39735,-2.80061 2.51477,0.35878 3.30928,3.3928 0.88845,3.3928 -0.93149,0 -1.9601,-0.2665 -2.2858,-0.59219 z m -2.14706,-12.06565 c 0.55963,-1.68076 3.33142,-1.91971 3.33142,-0.28719 0,0.82399 -0.75946,1.39752 -1.85056,1.39752 -1.08544,0 -1.69771,-0.45906 -1.48086,-1.11033 z m 5.10796,-5.55167 c 0,-0.73282 0.59958,-1.33241 1.3324,-1.33241 0.73282,0 1.3324,0.59959 1.3324,1.33241 0,0.73282 -0.59958,1.33241 -1.3324,1.33241 -0.73282,0 -1.3324,-0.59959 -1.3324,-1.33241 z m -7.99442,-3.99721 c 0,-0.48855 0.59958,-0.88827 1.3324,-0.88827 0.73283,0 1.33241,0.39972 1.33241,0.88827 0,0.48856 -0.59958,0.88828 -1.33241,0.88828 -0.73282,0 -1.3324,-0.39972 -1.3324,-0.88828 z m -3.55307,-2.66479 c 0,-0.48856 0.59958,-0.88828 1.3324,-0.88828 0.73282,0 1.3324,0.39972 1.3324,0.88828 0,0.48855 -0.59958,0.88827 -1.3324,0.88827 -0.73282,0 -1.3324,-0.39972 -1.3324,-0.88827 z m 29.4828,17.09915 c 5.10016,-5.46692 5.56817,-19.94217 1.06589,-32.96808 -1.41253,-4.08672 -2.96795,-7.37923 -3.45651,-7.31674 -1.0398,0.13295 -1.05204,6.70637 -0.0227,12.78714 0.63578,3.75974 0.49213,4.4702 -1.22769,6.07248 -1.53958,1.43434 -1.72934,2.07769 -0.90555,3.07031 0.57321,0.69064 1.59282,1.25574 2.26581,1.25574 1.8369,0 1.47246,2.4661 -0.45484,3.07781 -1.88849,0.59939 -2.85636,4.13864 -2.13399,7.80348 0.29616,1.50257 0.0969,2.44271 -0.51784,2.44271 -1.44541,0 -1.22869,1.57101 0.55518,4.02428 1.96436,2.70148 2.08658,2.69519 4.83336,-0.24902 z"
         id="path870"
         inkscape:connector-curvature="0" />
      <path
         style="fill:#edd36e;fill-rule:nonzero;stroke-width:0.88826817"
         d="m 146.25902,158.49619 c -4.16563,-2.63612 -9.19488,-8.24268 -11.32303,-12.62279 -5.13502,-10.56879 0.39838,-30.82462 11.03229,-40.38544 2.35837,-2.12037 4.28795,-4.24182 4.28795,-4.71431 0,-0.47249 -2.37254,-1.325839 -5.2723,-1.896329 -20.37751,-4.00904 -32.23995,-12.808506 -32.23995,-23.915403 0,-7.108532 3.06403,-12.66013 10.87235,-19.699243 6.62653,-5.973728 9.02982,-7.226875 10.20694,-5.32224 0.30194,0.488528 3.02364,0.890489 6.04823,0.893209 11.50284,0.01007 16.4364,3.433116 17.38012,12.057842 0.56416,5.155931 0.78163,5.438795 5.66244,7.365184 2.96096,1.168645 3.25173,4.059802 0.55349,5.503833 -1.60125,0.856976 -2.50649,0.576 -5.93912,-1.84355 -3.60267,-2.539403 -4.37062,-2.756222 -6.95396,-1.963352 -2.12979,0.653628 -3.30964,0.594709 -4.42529,-0.221074 -1.42177,-1.039626 -1.39803,-1.285401 0.36317,-3.758785 1.03643,-1.455512 2.50266,-3.159493 3.25828,-3.786607 1.9603,-1.626907 1.6974,-4.148408 -0.60031,-5.757791 -2.50623,-1.755422 -5.13197,-1.781206 -5.13197,-0.05036 0,1.702168 -2.70422,1.717628 -4.93776,0.0282 -4.62465,-3.497902 -11.84819,0.41294 -17.17506,9.298574 -3.7499,6.255131 -1.68292,11.593914 5.98955,15.470411 2.27241,1.148124 8.9283,3.779256 14.79087,5.846926 12.06792,4.256276 14.86862,5.599086 21.76258,10.434036 4.38466,3.075109 5.17698,4.150119 7.72928,10.486929 5.40586,13.4217 6.06512,26.22467 1.78526,34.67058 -5.4744,10.80321 -20.61159,18.38247 -27.72405,13.88152 z m 8.08748,-6.39118 c 1.94375,-3.63926 2.12225,-4.98252 2.06562,-15.54469 -0.0991,-18.48563 -1.16587,-31.54442 -2.65375,-32.48582 -2.19712,-1.39012 -3.42236,-0.9481 -7.31301,2.63816 -4.91351,4.52911 -9.5877,15.56903 -10.19695,24.08403 -0.38915,5.4389 -0.27156,5.96927 1.42173,6.41207 2.39766,0.62702 3.60583,4.99836 1.75782,6.36011 -0.7256,0.53465 -1.14539,1.48844 -0.93287,2.11954 0.27779,0.82484 0.70504,0.88296 1.51985,0.20672 1.24657,-1.03454 4.02341,-0.33063 4.02341,1.01996 0,0.46838 -0.40889,1.61565 -0.90864,2.54942 -0.76963,1.43809 -0.33498,2.11337 2.84112,4.41413 2.06237,1.49399 4.31188,2.60235 4.99891,2.46308 0.68703,-0.13924 2.20658,-2.04581 3.37676,-4.23671 z m -5.27463,1.17061 c -1.36924,-1.36925 -0.51868,-3.07396 1.39735,-2.80061 2.51477,0.35878 3.30928,3.3928 0.88845,3.3928 -0.93149,0 -1.9601,-0.2665 -2.2858,-0.59219 z m -2.14706,-12.06565 c 0.55963,-1.68076 3.33142,-1.91971 3.33142,-0.28719 0,0.82399 -0.75946,1.39752 -1.85056,1.39752 -1.08544,0 -1.69771,-0.45906 -1.48086,-1.11033 z m 5.10796,-5.55167 c 0,-0.73282 0.59958,-1.33241 1.3324,-1.33241 0.73282,0 1.3324,0.59959 1.3324,1.33241 0,0.73282 -0.59958,1.33241 -1.3324,1.33241 -0.73282,0 -1.3324,-0.59959 -1.3324,-1.33241 z m -7.99442,-3.99721 c 0,-0.48855 0.59958,-0.88827 1.3324,-0.88827 0.73283,0 1.33241,0.39972 1.33241,0.88827 0,0.48856 -0.59958,0.88828 -1.33241,0.88828 -0.73282,0 -1.3324,-0.39972 -1.3324,-0.88828 z m -3.55307,-2.66479 c 0,-0.48856 0.59958,-0.88828 1.3324,-0.88828 0.73282,0 1.3324,0.39972 1.3324,0.88828 0,0.48855 -0.59958,0.88827 -1.3324,0.88827 -0.73282,0 -1.3324,-0.39972 -1.3324,-0.88827 z m 29.4828,17.09915 c 5.10016,-5.46692 5.56817,-19.94217 1.06589,-32.96808 -1.41253,-4.08672 -2.96795,-7.37923 -3.45651,-7.31674 -1.0398,0.13295 -1.05204,6.70637 -0.0227,12.78714 0.63578,3.75974 0.49213,4.4702 -1.22769,6.07248 -1.53958,1.43434 -1.72934,2.07769 -0.90555,3.07031 0.57321,0.69064 1.59282,1.25574 2.26581,1.25574 1.8369,0 1.47246,2.4661 -0.45484,3.07781 -1.88849,0.59939 -2.85636,4.13864 -2.13399,7.80348 0.29616,1.50257 0.0969,2.44271 -0.51784,2.44271 -1.44541,0 -1.22869,1.57101 0.55518,4.02428 1.96436,2.70148 2.08658,2.69519 4.83336,-0.24902 z"
         id="path868"
         inkscape:connector-curvature="0" />
      <path
         style="fill:#b9c894;fill-rule:nonzero;stroke-width:0.88826817"
         d="m 147.07332,158.99393 c -2.55621,-1.55945 -5.74144,-4.30923 -8.29735,-7.16304 -3.02786,-3.38077 -1.69572,-2.99198 2.30427,0.67248 1.84724,1.6923 4.67351,3.78502 6.28059,4.65049 3.65562,1.96869 5.22449,1.14127 8.06817,-4.25507 2.03789,-3.86723 2.05719,-4.17598 1.53541,-24.56101 -0.29063,-11.35448 -0.90542,-21.63613 -1.36621,-22.84808 -0.46957,-1.23507 -1.82763,-2.45201 -3.08988,-2.76881 -1.23865,-0.31087 -2.25209,-1.06947 -2.25209,-1.68578 0,-0.65949 -2.1692,-1.547289 -5.2723,-2.157789 -20.37751,-4.00904 -32.23995,-12.808506 -32.23995,-23.915403 0,-7.108532 3.06403,-12.66013 10.87235,-19.699243 6.62653,-5.973728 9.02982,-7.226875 10.20694,-5.32224 0.30194,0.488528 3.02364,0.890489 6.04823,0.893209 11.50284,0.01007 16.4364,3.433116 17.38012,12.057842 0.56416,5.155931 0.78163,5.438795 5.66244,7.365184 2.96096,1.168645 3.25173,4.059802 0.55349,5.503833 -1.60125,0.856976 -2.50649,0.576 -5.93912,-1.84355 -3.60267,-2.539403 -4.37062,-2.756222 -6.95396,-1.963352 -2.12979,0.653628 -3.30964,0.594709 -4.42529,-0.221074 -1.42177,-1.039626 -1.39803,-1.285401 0.36317,-3.758785 1.03643,-1.455512 2.50266,-3.159493 3.25828,-3.786607 1.9603,-1.626907 1.6974,-4.148408 -0.60031,-5.757791 -2.50623,-1.755422 -5.13197,-1.781206 -5.13197,-0.05036 0,1.702168 -2.70422,1.717628 -4.93776,0.0282 -4.62465,-3.497902 -11.84819,0.41294 -17.17506,9.298574 -3.7499,6.255131 -1.68292,11.593914 5.98955,15.470411 2.27241,1.148124 8.9283,3.779256 14.79087,5.846926 12.06792,4.256276 14.86862,5.599086 21.76258,10.434036 4.38466,3.075109 5.17698,4.150119 7.72928,10.486929 7.34423,18.23426 5.84999,33.42755 -4.17858,42.48778 -6.34776,5.7348 -16.88876,9.03716 -20.94591,6.56207 z m 16.80355,-6.51455 c 8.39824,-4.69387 11.82392,-12.79016 11.01897,-26.0424 -0.48516,-7.98769 -4.75916,-21.96477 -7.38221,-24.1417 -1.07147,-0.88925 -1.26858,-0.33803 -1.26858,3.54806 0,2.53049 -0.46116,6.43237 -1.02482,8.67081 -0.79189,3.14489 -0.77809,4.46496 0.0607,5.80804 0.87831,1.40639 0.83381,2.01858 -0.23316,3.20751 -2.80723,3.12835 -4.393,8.84427 -3.4664,12.49473 0.74372,2.93006 0.62747,3.64989 -0.78471,4.85907 -0.91179,0.78068 -1.6578,2.36685 -1.6578,3.52482 0,1.15797 -0.2542,3.95991 -0.56487,6.22658 -0.66183,4.8285 -0.27619,4.96265 5.30282,1.84448 z m -31.162,-16.82108 c 0.01,-1.95419 0.19177,-2.64903 0.40423,-1.54412 0.21246,1.10494 0.20441,2.70383 -0.0179,3.55307 -0.22233,0.84927 -0.39616,-0.0549 -0.3863,-2.00895 z"
         id="path866"
         inkscape:connector-curvature="0" />
      <path
         style="fill:#c6bb91;fill-rule:nonzero;stroke-width:0.88826817"
         d="m 147.07332,158.99393 c -2.55621,-1.55945 -5.74144,-4.30923 -8.29735,-7.16304 -3.02786,-3.38077 -1.69572,-2.99198 2.30427,0.67248 1.84724,1.6923 4.67351,3.78502 6.28059,4.65049 3.65562,1.96869 5.22449,1.14127 8.06817,-4.25507 2.03789,-3.86723 2.05719,-4.17598 1.53541,-24.56101 -0.29063,-11.35448 -0.90542,-21.63613 -1.36621,-22.84808 -0.46957,-1.23507 -1.82763,-2.45201 -3.08988,-2.76881 -1.23865,-0.31087 -2.25209,-1.11386 -2.25209,-1.78441 0,-0.67057 -1.09923,-1.456689 -2.44274,-1.746959 -6.89622,-1.48993 -18.45769,-5.03947 -21.54571,-6.61489 -8.22889,-4.198062 -13.26898,-11.102466 -13.29063,-18.206843 -0.0143,-4.71469 3.43807,-11.919533 7.49663,-15.644627 1.80311,-1.654932 4.75368,-4.507943 6.55683,-6.340011 3.01858,-3.066959 6.34852,-4.408082 6.34852,-2.556853 0,0.425782 3.09784,0.956032 6.88408,1.178364 7.54447,0.443004 12.90213,2.456791 14.98218,5.631366 0.71668,1.093787 1.38626,4.127434 1.48795,6.741444 0.16941,4.354576 0.40813,4.850431 2.84971,5.919089 4.68991,2.052739 5.32962,2.566421 5.32962,4.279768 0,2.68567 -4.13952,2.636873 -7.3766,-0.08687 -2.44219,-2.05498 -3.22615,-2.240299 -7.23019,-1.709143 -4.05216,0.537552 -4.49099,0.428022 -4.49099,-1.120955 0,-0.944197 1.39902,-3.072725 3.10894,-4.730024 3.86775,-3.748788 3.92321,-5.747518 0.22208,-8.004158 -3.61705,-2.20535 -4.27125,-2.204041 -4.85017,0.01007 -0.58376,2.232292 -2.02982,2.243119 -5.75862,0.04306 -2.85901,-1.686859 -3.03442,-1.690283 -6.5251,-0.127407 -4.57015,2.046092 -10.43591,8.682059 -11.85184,13.408004 -2.21356,7.388223 1.98432,10.811343 22.01911,17.955302 6.54999,2.335578 13.68923,5.346944 15.86497,6.691894 2.17572,1.34495 5.32162,3.15317 6.99085,4.01825 3.84362,1.991929 5.78547,5.207449 8.92111,14.772399 2.07027,6.31513 2.50393,9.17637 2.50393,16.52063 0,7.91339 -0.25904,9.37349 -2.37375,13.38041 -4.23112,8.01705 -12.89518,14.08785 -21.55396,15.1026 -2.09866,0.246 -4.3829,-0.0496 -5.45911,-0.70603 z m 16.80355,-6.51455 c 8.39824,-4.69387 11.82392,-12.79016 11.01897,-26.0424 -0.48516,-7.98769 -4.75916,-21.96477 -7.38221,-24.1417 -1.07147,-0.88925 -1.26858,-0.33803 -1.26858,3.54806 0,2.53049 -0.46116,6.43237 -1.02482,8.67081 -0.79189,3.14489 -0.77809,4.46496 0.0607,5.80804 0.87831,1.40639 0.83381,2.01858 -0.23316,3.20751 -2.80723,3.12835 -4.393,8.84427 -3.4664,12.49473 0.74372,2.93006 0.62747,3.64989 -0.78471,4.85907 -0.91179,0.78068 -1.6578,2.36685 -1.6578,3.52482 0,1.15797 -0.2542,3.95991 -0.56487,6.22658 -0.66183,4.8285 -0.27619,4.96265 5.30282,1.84448 z m -31.162,-16.82108 c 0.01,-1.95419 0.19177,-2.64903 0.40423,-1.54412 0.21246,1.10494 0.20441,2.70383 -0.0179,3.55307 -0.22233,0.84927 -0.39616,-0.0549 -0.3863,-2.00895 z"
         id="path864"
         inkscape:connector-curvature="0" />
      <path
         style="fill:#b1b98e;fill-rule:nonzero;stroke-width:0.88826817"
         d="m 145.0599,156.52704 c -2.0275,-1.4687 -3.68635,-2.87023 -3.68635,-3.11452 0,-0.24424 1.65885,0.75754 3.68635,2.22625 5.69782,4.12748 7.55581,3.45522 10.95499,-3.96379 1.47281,-3.21454 1.56202,-5.30779 1.0122,-23.75134 -0.33163,-11.12438 -0.89151,-20.9776 -1.24417,-21.89604 -1.37552,-3.58225 -6.16505,-6.338549 -14.83666,-8.538279 -4.72565,-1.19876 -10.6781,-3.13457 -13.22768,-4.3018 -9.21307,-4.21788 -14.71835,-11.246216 -14.74143,-18.819733 -0.0143,-4.71469 3.43807,-11.919533 7.49663,-15.644627 1.80311,-1.654932 4.75368,-4.507943 6.55683,-6.340011 3.01858,-3.066959 6.34852,-4.408082 6.34852,-2.556853 0,0.425782 3.09784,0.956032 6.88408,1.178364 7.54447,0.443004 12.90213,2.456791 14.98218,5.631366 0.71668,1.093787 1.38626,4.127434 1.48795,6.741444 0.16941,4.354576 0.40813,4.850431 2.84971,5.919089 4.68991,2.052739 5.32962,2.566421 5.32962,4.279768 0,2.68567 -4.13952,2.636873 -7.3766,-0.08687 -2.44219,-2.05498 -3.22615,-2.240299 -7.23019,-1.709143 -4.05216,0.537552 -4.49099,0.428022 -4.49099,-1.120955 0,-0.944197 1.39902,-3.072725 3.10894,-4.730024 3.86775,-3.748788 3.92321,-5.747518 0.22208,-8.004158 -3.61705,-2.20535 -4.27125,-2.204041 -4.85017,0.01007 -0.58376,2.232292 -2.02982,2.243119 -5.75862,0.04306 -2.85901,-1.686859 -3.03442,-1.690283 -6.5251,-0.127407 -4.57015,2.046092 -10.43591,8.682059 -11.85184,13.408004 -0.95793,3.197262 -0.89111,4.014732 0.53063,6.492522 2.03078,3.539196 9.34389,7.340307 23.73186,12.33504 6.49607,2.255079 12.68579,5.104794 15.98883,7.361154 5.08122,3.471089 5.40603,3.906989 5.67945,7.622339 0.15939,2.16741 -0.19362,6.23368 -0.78498,9.03616 -0.85922,4.07251 -0.84824,5.36872 0.0546,6.45661 0.92355,1.11282 0.87777,1.64174 -0.25079,2.89897 -2.86409,3.19051 -4.46262,8.88231 -3.52832,12.56316 0.7267,2.86306 0.61788,3.65812 -0.6493,4.74309 -1.49367,1.27891 -3.36693,12.71094 -2.26362,13.81425 0.84025,0.84025 7.8995,-3.42662 10.46342,-6.3245 1.55064,-1.75263 2.44275,-2.2713 2.44275,-1.42026 0,2.16244 -6.26481,7.63044 -11.54751,10.07877 -6.57855,3.04896 -10.35716,2.95081 -14.96729,-0.38874 z m 29.02368,-17.47037 c 0.37905,-1.85911 0.60241,-2.08248 0.86128,-0.86128 0.19212,0.90685 -0.038,2.03639 -0.51179,2.51009 -0.55616,0.55619 -0.67997,-0.028 -0.34949,-1.64881 z m 1.18441,-5.61903 c 0,-1.22137 0.20168,-1.72103 0.44804,-1.11035 0.2465,0.61069 0.2465,1.60998 0,2.22068 -0.24651,0.61067 -0.44804,0.11104 -0.44804,-1.11033 z"
         id="path862"
         inkscape:connector-curvature="0" />
      <path
         style="fill:#b2cc6e;fill-rule:nonzero;stroke-width:0.88826817"
         d="m 145.14869,156.60507 c -2.07633,-1.51163 -3.77514,-2.94826 -3.77514,-3.19255 0,-0.24424 1.65885,0.75754 3.68635,2.22625 5.64054,4.08599 7.57366,3.42828 10.82116,-3.68174 1.63382,-3.57709 1.89937,-17.03787 0.71715,-36.3537 -0.62379,-10.19176 -0.65706,-10.31237 -3.70777,-13.44263 -2.41403,-2.476959 -4.2285,-3.384999 -8.40795,-4.207709 -25.41965,-5.00384 -36.34254,-16.772981 -29.40163,-31.679553 1.163,-2.497682 3.58982,-5.89532 5.39292,-7.550277 1.80311,-1.654932 4.75368,-4.507943 6.55683,-6.340011 3.10914,-3.158964 5.46025,-4.258744 5.46025,-2.554108 0,0.427267 3.2977,0.954772 7.32822,1.17222 12.1123,0.653477 16.65503,4.077755 16.65503,12.554453 0,4.225331 0.7366,5.211879 4.88546,6.543106 1.70839,0.548178 2.76687,1.548827 2.94917,2.788049 0.55515,3.773514 -3.81962,3.257994 -8.49618,-1.001203 -1.75319,-1.596742 -2.38758,-1.695193 -5.25411,-0.81543 -5.67849,1.742782 -6.39898,-0.5232 -1.63462,-5.140975 3.71799,-3.60363 3.89864,-5.467776 0.76847,-7.929954 -2.7548,-2.166927 -6.54222,-2.461373 -6.54222,-0.508596 0,1.702143 -2.70422,1.717603 -4.93776,0.0282 -2.52703,-1.911358 -5.04934,-1.648537 -8.83521,0.920629 -4.03785,2.740157 -6.11303,5.060552 -8.45389,9.452871 -5.084,9.539464 -0.38033,13.877774 24.40122,22.505824 5.67896,1.977201 11.96114,4.913555 15.10055,7.058145 5.0668,3.461219 5.39262,3.898989 5.66596,7.613099 0.15939,2.16741 -0.19362,6.23368 -0.78501,9.03616 -0.85922,4.07252 -0.84824,5.36869 0.0546,6.45661 0.92355,1.11283 0.87777,1.64174 -0.25079,2.89897 -2.86409,3.19051 -4.46262,8.88231 -3.52831,12.56316 0.72669,2.86306 0.61787,3.65812 -0.6493,4.74309 -1.49366,1.27891 -3.36693,12.71095 -2.26362,13.81425 0.84026,0.84023 7.89949,-3.42665 10.46342,-6.3245 1.34349,-1.51851 2.44274,-2.28968 2.44274,-1.71375 0,1.95205 -6.48446,7.54461 -11.30856,9.75316 -7.61668,3.48702 -10.66587,3.54922 -15.11743,0.30837 z m 28.93489,-17.5484 c 0.37905,-1.85911 0.60241,-2.08248 0.86128,-0.86128 0.19212,0.90685 -0.038,2.03639 -0.51179,2.51009 -0.55616,0.55619 -0.67997,-0.028 -0.34949,-1.64881 z m 1.18441,-5.61903 c 0,-1.22137 0.20168,-1.72103 0.44804,-1.11035 0.2465,0.61069 0.2465,1.60998 0,2.22068 -0.24651,0.61067 -0.44804,0.11104 -0.44804,-1.11033 z"
         id="path860"
         inkscape:connector-curvature="0" />
      <path
         style="fill:#cfb658;fill-rule:nonzero;stroke-width:0.88826817"
         d="m 145.14869,156.60507 c -2.07633,-1.51163 -3.77514,-2.94826 -3.77514,-3.19255 0,-0.24424 1.65885,0.75754 3.68635,2.22625 5.64054,4.08599 7.57366,3.42828 10.82116,-3.68174 1.63382,-3.57709 1.89937,-17.03787 0.71715,-36.3537 -0.62412,-10.19723 -0.65542,-10.31053 -3.70777,-13.42312 -2.55725,-2.607689 -4.28125,-3.401889 -10.18449,-4.691669 -13.68811,-2.99072 -23.31506,-8.262424 -27.03284,-14.803139 -2.54498,-4.4774 -2.43747,-11.42977 0.26654,-17.236585 2.01499,-4.327156 6.70534,-9.265311 8.84702,-9.314411 0.5732,-0.01259 2.02191,-1.612026 3.21935,-3.55307 2.27626,-3.689793 3.94112,-4.450786 4.80607,-2.196789 0.38868,1.012886 2.06232,1.337094 6.97911,1.351924 11.23863,0.03399 17.4036,4.345713 16.44388,11.500953 -0.56691,4.226615 0.66548,6.163025 4.76576,7.48831 2.09643,0.677599 3.02355,1.518284 3.02355,2.741644 0,2.805246 -2.66144,2.571456 -6.2116,-0.545635 -3.12964,-2.747837 -3.4391,-2.831407 -6.97027,-1.882325 -5.4231,1.457601 -5.91894,0.05262 -1.62533,-4.605362 3.28657,-3.565508 3.58326,-4.238953 2.71093,-6.153483 -1.59219,-3.494478 -8.77804,-5.778312 -8.77804,-2.789861 0,1.695017 -1.82895,1.707783 -4.04949,0.0282 -2.57901,-1.950663 -5.96478,-1.630105 -9.72348,0.920629 -4.47746,3.038481 -6.33913,5.267777 -8.94941,10.716719 -1.83282,3.825988 -2.02853,4.968899 -1.21657,7.104528 2.06131,5.421623 5.98406,7.808969 21.71828,13.217372 10.72038,3.684981 14.78847,5.527251 20.99226,9.506481 l 4.11515,2.639539 -0.22586,5.46956 c -0.12413,3.00825 -0.52237,6.97287 -0.88482,8.81028 -0.44288,2.24505 -0.29447,3.78001 0.45252,4.68006 0.90006,1.08453 0.84889,1.6319 -0.26894,2.87714 -2.86412,3.19051 -4.46265,8.88231 -3.52834,12.56316 0.72672,2.86306 0.61787,3.65812 -0.6493,4.74309 -1.49366,1.27891 -3.36692,12.71095 -2.26361,13.81425 0.84025,0.84023 7.89948,-3.42665 10.46341,-6.3245 1.34351,-1.51851 2.44274,-2.28968 2.44274,-1.71375 0,1.95205 -6.48444,7.54461 -11.30856,9.75316 -7.61668,3.48702 -10.66587,3.54922 -15.11742,0.30837 z m -6.43995,-65.412604 c 0,-0.761648 -0.40624,-1.133747 -0.90275,-0.826887 -0.49652,0.30686 -0.67279,0.930046 -0.39171,1.384834 0.76145,1.232068 1.29446,1.002338 1.29446,-0.557947 z m -14.60859,-4.910433 c 0.91538,-1.48112 -1.14339,-3.179587 -2.36876,-1.954188 -1.025,1.024972 -0.38349,2.919837 0.98852,2.919837 0.43088,0 1.05199,-0.434543 1.38024,-0.965649 z m 49.98343,52.774637 c 0.37905,-1.85911 0.60241,-2.08248 0.86128,-0.86128 0.19212,0.90685 -0.038,2.03639 -0.51179,2.51009 -0.55616,0.55619 -0.67997,-0.028 -0.34949,-1.64881 z m 1.18441,-5.61903 c 0,-1.22137 0.20168,-1.72103 0.44804,-1.11035 0.2465,0.61069 0.2465,1.60998 0,2.22068 -0.24651,0.61067 -0.44804,0.11104 -0.44804,-1.11033 z"
         id="path858"
         inkscape:connector-curvature="0" />
      <path
         style="fill:#b6e63a;fill-rule:nonzero;stroke-width:0.88826817"
         d="m 154.69757,157.42088 c 0,-0.48855 0.39972,-0.88827 0.88827,-0.88827 0.48855,0 0.88827,0.39972 0.88827,0.88827 0,0.48853 -0.39972,0.88825 -0.88827,0.88825 -0.48855,0 -0.88827,-0.39972 -0.88827,-0.88825 z m 3.49689,-30.86732 c -0.0309,-1.34352 -0.36002,-6.80495 -0.73137,-12.13656 l -0.67519,-9.69381 -3.37935,-2.83712 c -2.53939,-2.131949 -5.17258,-3.221539 -10.59404,-4.383709 -13.67657,-2.93175 -23.40433,-8.242302 -27.1414,-14.816959 -2.54498,-4.4774 -2.43747,-11.42977 0.26654,-17.236585 2.01499,-4.327156 6.70534,-9.265311 8.84702,-9.314411 0.5732,-0.01259 2.02191,-1.612026 3.21935,-3.55307 2.27626,-3.689793 3.94112,-4.450786 4.80607,-2.196789 0.38868,1.012886 2.06232,1.337094 6.97911,1.351924 11.23863,0.03399 17.4036,4.345713 16.44388,11.500953 -0.56691,4.226615 0.66548,6.163025 4.76576,7.48831 2.09643,0.677599 3.02355,1.518284 3.02355,2.741644 0,2.805246 -2.66144,2.571456 -6.2116,-0.545635 -3.12964,-2.747837 -3.4391,-2.831407 -6.97027,-1.882325 -5.4231,1.457601 -5.91894,0.05262 -1.62533,-4.605362 3.28657,-3.565508 3.58326,-4.238953 2.71093,-6.153483 -1.59219,-3.494478 -8.77804,-5.778312 -8.77804,-2.789861 0,1.695017 -1.82895,1.707783 -4.04949,0.0282 -2.57901,-1.950663 -5.96478,-1.630105 -9.72348,0.920629 -4.47746,3.038481 -6.33913,5.267777 -8.94941,10.716719 -1.83282,3.825988 -2.02853,4.968899 -1.21657,7.104528 2.06104,5.420918 5.98059,7.806627 21.71828,13.219236 11.45346,3.939147 18.58422,7.348487 21.98465,10.511307 1.94845,1.812299 2.44272,3.060689 2.44272,6.169569 0,6.37408 -4.55994,22.83535 -6.32563,22.83535 -0.42928,0 -0.80579,-1.09923 -0.83669,-2.44274 z M 138.70874,91.192466 c 0,-0.761648 -0.40624,-1.133747 -0.90275,-0.826887 -0.49652,0.30686 -0.67279,0.930046 -0.39171,1.384834 0.76145,1.232068 1.29446,1.002338 1.29446,-0.557947 z m -14.60859,-4.910433 c 0.91538,-1.48112 -1.14339,-3.179587 -2.36876,-1.954188 -1.025,1.024972 -0.38349,2.919837 0.98852,2.919837 0.43088,0 1.05199,-0.434543 1.38024,-0.965649 z"
         id="path856"
         inkscape:connector-curvature="0" />
      <path
         style="fill:#abd04b;fill-rule:nonzero;stroke-width:0.88826817"
         d="m 154.69757,157.42088 c 0,-0.48855 0.39972,-0.88827 0.88827,-0.88827 0.48855,0 0.88827,0.39972 0.88827,0.88827 0,0.48853 -0.39972,0.88825 -0.88827,0.88825 -0.48855,0 -0.88827,-0.39972 -0.88827,-0.88825 z m 3.55307,-30.51496 c 0,-1.14969 -0.24164,-4.44739 -0.53698,-7.3282 -0.50233,-4.89983 -0.40201,-5.29517 1.55447,-6.12611 1.15029,-0.48856 2.85926,-2.46125 3.79766,-4.38379 1.69379,-3.47003 1.69291,-3.5186 -0.12237,-6.662 -1.69305,-2.931669 -9.34655,-7.777019 -14.81285,-9.377859 -0.92489,-0.27086 -1.43962,-0.734482 -1.14385,-1.030237 0.81825,-0.818251 13.15362,5.349287 15.92742,7.963497 1.94386,1.832039 2.44271,3.098179 2.44271,6.199729 0,3.86157 -2.63992,15.68749 -4.55228,20.39261 -1.2166,2.99326 -2.55385,3.17777 -2.55385,0.35236 z m -1.7111,-21.27663 c -1.35845,-3.57301 -6.29183,-6.472679 -13.83359,-8.130929 -13.71477,-3.01552 -23.31826,-8.277859 -27.03284,-14.812959 -3.83492,-6.746806 -1.25715,-18.677669 5.21149,-24.120669 3.87181,-3.257919 4.92221,-3.046161 1.74756,0.352308 -2.25104,2.409756 -3.25707,4.3474 -2.25717,4.3474 0.17593,0 1.81503,-1.410089 3.64242,-3.133558 1.8274,-1.723445 4.78129,-3.904245 6.5642,-4.846201 l 3.24166,-1.712668 -2.70922,-0.03928 c -1.49007,-0.02266 -3.23781,0.460378 -3.88387,1.071075 -0.96666,0.91373 -1.00078,0.795766 -0.19265,-0.666192 2.62774,-4.753869 4.80072,-6.090888 5.77456,-3.553096 0.38868,1.012886 2.06232,1.337094 6.97912,1.351925 11.23863,0.03399 17.4036,4.345713 16.44388,11.500952 -0.56691,4.226616 0.66547,6.163026 4.76575,7.488311 2.09643,0.677599 3.02355,1.518284 3.02355,2.741643 0,2.805246 -2.66144,2.571457 -6.2116,-0.545634 -3.12963,-2.747837 -3.43909,-2.831407 -6.97026,-1.882326 -5.42311,1.457602 -5.91894,0.05262 -1.62533,-4.605361 3.28657,-3.565509 3.58326,-4.238953 2.71093,-6.153483 -1.59219,-3.494478 -8.77804,-5.778312 -8.77804,-2.789861 0,1.695017 -1.82895,1.707783 -4.0495,0.0282 -2.579,-1.950662 -5.96477,-1.630105 -9.72347,0.920629 -4.48526,3.04377 -6.33953,5.268256 -8.96919,10.759902 -2.03124,4.241975 -2.10623,4.833662 -0.95685,7.550302 1.45756,3.445001 3.27189,5.155604 8.15432,7.688133 1.95419,1.013642 3.12984,1.860647 2.61254,1.882225 -0.51728,0.02266 -3.2154,-1.330597 -5.99581,-3.004867 -5.33215,-3.210859 -5.9233,-2.987544 -3.66284,1.383701 0.87872,1.699272 1.86186,2.512562 2.6648,2.204444 0.6998,-0.268537 1.27548,-0.200931 1.2793,0.150068 0.0169,1.555852 13.82251,6.830577 21.54111,8.230247 9.12663,1.65495 14.71424,5.805329 13.63025,10.124249 -0.70847,2.82287 -2.10852,2.92167 -3.1352,0.22132 z M 116.57742,73.830563 c -0.78252,-1.956277 -0.85558,-1.978561 -0.90735,-0.277022 -0.031,1.017821 0.21017,2.117047 0.53588,2.44274 1.06092,1.060928 1.24136,0.01007 0.37147,-2.165718 z m 44.98573,-2.220105 c -0.29518,-0.295151 -1.06131,-0.326701 -1.70252,-0.07025 -0.7086,0.283569 -0.49812,0.494042 0.53667,0.53667 0.93636,0.03852 1.461,-0.17147 1.16585,-0.466546 z m -42.42779,-6.44939 c -0.0645,-1.155677 -2.57024,3.929425 -2.56708,5.209513 0.002,0.732842 0.58723,-0.01259 1.30093,-1.656443 0.7137,-1.643878 1.28346,-3.24276 1.26615,-3.55307 z m 34.39246,-0.28664 c -0.28356,-0.708595 -0.49404,-0.498121 -0.53666,0.53667 -0.0386,0.936392 0.17137,1.461002 0.46654,1.16585 0.29516,-0.295176 0.32672,-1.061305 0.0701,-1.70252 z m -10.82187,25.926324 c -1.17139,-0.503358 -1.32268,-0.780028 -0.44413,-0.812232 0.73282,-0.02694 1.93198,0.338661 2.6648,0.812232 1.62372,1.049346 0.22125,1.049346 -2.22067,0 z m -7.99441,-2.728676 c -1.95419,-0.93979 -2.57959,-1.459264 -1.38976,-1.154393 3.25193,0.833207 7.79764,2.929707 6.27523,2.894154 -0.73282,-0.01763 -2.93128,-0.799995 -4.88547,-1.739761 z"
         id="path854"
         inkscape:connector-curvature="0" />
      <path
         style="fill:#a1b65d;fill-rule:nonzero;stroke-width:0.88826817"
         d="m 154.69757,157.42088 c 0,-0.48855 0.39972,-0.88827 0.88827,-0.88827 0.48855,0 0.88827,0.39972 0.88827,0.88827 0,0.48853 -0.39972,0.88825 -0.88827,0.88825 -0.48855,0 -0.88827,-0.39972 -0.88827,-0.88825 z m 3.55307,-30.51496 c 0,-1.14969 -0.24164,-4.44739 -0.53698,-7.3282 -0.50233,-4.89983 -0.40201,-5.29517 1.55447,-6.12611 1.15029,-0.48856 2.79034,-2.28731 3.64455,-3.99721 l 1.55308,-3.10896 0.001,3.2759 c 0.002,3.69931 -2.18521,13.8005 -3.71404,17.15588 -1.27405,2.79616 -2.50249,2.85936 -2.50249,0.12867 z m -4.12858,-24.03617 c -3.27117,-3.314319 -4.51663,-3.911449 -11.10336,-5.323499 -13.81817,-2.96232 -23.65865,-8.288761 -27.23157,-14.739913 -1.29604,-2.340059 -1.65087,-4.426991 -1.43477,-8.43855 0.36571,-6.788856 0.50785,-7.550277 1.40945,-7.550277 0.40712,0 0.66103,-0.299784 0.56424,-0.666193 -0.43576,-1.649543 1.32117,-4.519072 3.96006,-6.46782 l 2.87794,-2.125281 -1.62545,2.486049 c -2.12704,3.25321 -1.15492,4.171296 1.21995,1.152152 1.01203,-1.286609 2.11686,-2.277161 2.45518,-2.201271 1.22085,0.273875 5.43391,-2.226123 4.98247,-2.956573 -0.25433,-0.411505 0.22349,-0.484978 1.06185,-0.163162 0.97888,0.375649 1.31122,0.24021 0.92886,-0.378444 -0.32746,-0.529822 -0.0932,-1.165774 0.52049,-1.413211 0.61373,-0.247512 -0.14561,-0.481427 -1.68743,-0.520002 -2.66403,-0.06672 -2.75229,-0.180032 -1.77654,-2.283884 1.49057,-3.213704 3.84884,-2.795376 3.37294,0.598334 -0.0467,0.332895 2.82778,0.593853 6.3877,0.579879 11.67868,-0.04583 17.47004,3.151964 17.47004,9.646298 0,1.801526 -0.36215,2.81776 -0.88827,2.492596 -0.48855,-0.30195 -0.88827,0.297644 -0.88827,1.33241 0,1.034742 0.31407,1.687262 0.69792,1.450023 0.38386,-0.237188 0.69793,0.319726 0.69793,1.237687 0,0.91796 -0.15072,1.518309 -0.33493,1.334097 -0.18421,-0.184312 -2.18868,0.222837 -4.45438,0.904842 -2.61499,0.787003 -4.42904,0.930172 -4.96718,0.392041 -0.46626,-0.466269 -0.67253,-0.954344 -0.45839,-1.084622 0.21415,-0.130176 1.70537,-1.429023 3.31383,-2.886071 2.44406,-2.214012 3.06126,-2.432895 3.7571,-1.332411 0.61819,0.97766 0.83613,0.573282 0.84623,-1.570077 0.008,-1.587779 -0.35918,-2.886852 -0.81481,-2.886852 -0.45562,0 -1.06289,-0.738785 -1.34947,-1.641738 -0.96027,-3.02554 -8.48134,-5.114335 -8.48134,-2.355469 0,0.732817 -0.59958,1.332385 -1.3324,1.332385 -0.73282,0 -1.3324,-0.423313 -1.3324,-0.940672 0,-0.517383 -0.3721,-0.710735 -0.82689,-0.429658 -0.45479,0.281076 -1.07796,0.104745 -1.38483,-0.391714 -1.67111,-2.703925 -10.02094,0.782319 -14.00519,5.847454 -0.92989,1.182166 -2.03081,1.939206 -2.44648,1.682327 -0.41566,-0.256904 -1.045,8.81e-4 -1.39851,0.572903 -0.40143,0.649524 -0.25773,0.802035 0.38275,0.406192 1.3703,-0.846879 1.30779,-0.465161 -0.63415,3.872293 -1.23886,2.767074 -1.80191,3.336301 -2.22067,2.245032 -0.89078,-2.321325 -0.64259,-3.692714 0.39905,-2.204922 0.71813,1.025702 0.80383,0.821247 0.37235,-0.888274 -0.4315,-1.70952 -0.34579,-1.913976 0.37234,-0.888273 1.08672,1.552175 1.2812,0.104745 0.21226,-1.579671 -1.02815,-1.620185 -3.02619,3.037323 -2.29343,5.346059 0.37656,1.186447 0.23674,1.581736 -0.41667,1.177911 -0.59385,-0.367038 -0.98343,0.09593 -0.98343,1.168746 0,2.28542 1.71942,3.355941 2.8479,1.773098 0.67565,-0.947672 0.75982,-0.873066 0.37271,0.330351 -0.27706,0.861257 -0.0503,1.554467 0.50838,1.554467 0.55464,0 0.74109,0.267353 0.41432,0.594104 -0.32676,0.326777 0.10626,1.419103 0.96229,2.427432 1.40485,1.654806 1.40848,1.718962 0.0373,0.658865 -1.3745,-1.062665 -1.49303,-0.88359 -1.24496,1.880891 0.37097,4.134257 1.11396,5.098346 3.92685,5.09545 1.31467,-0.0013 4.18906,0.861131 6.38752,1.91662 2.19847,1.055489 4.65986,2.236119 5.46975,2.623628 0.8099,0.387509 4.80711,1.373429 8.88268,2.190969 8.35509,1.67596 10.94184,2.78778 13.93048,5.987509 2.03551,2.17923 2.34884,5.14684 0.58581,5.54829 -0.48855,0.1113 -2.54627,-1.47759 -4.57272,-3.53076 z M 124.60975,60.821701 c 1.10489,-1.40883 1.07347,-1.440254 -0.33537,-0.335363 -1.47963,1.160411 -1.95017,1.889829 -1.2191,1.889829 0.18447,0 0.88397,-0.699505 1.55447,-1.554466 z m 38.28888,41.527339 c -0.82422,-1.3198 -0.81679,-1.83391 0.0337,-2.32269 0.60067,-0.345249 0.79581,-0.300639 0.43364,0.0992 -0.36216,0.39977 -0.20522,1.27296 0.34865,1.94042 0.55392,0.66742 0.83512,1.38553 0.62488,1.59578 -0.21025,0.21025 -0.85862,-0.38046 -1.44081,-1.31267 z m -2.89927,-27.733488 c -0.72922,-0.624824 -1.17355,-1.055137 -0.9874,-0.956258 0.18615,0.09895 0.90199,-0.383782 1.5908,-1.072586 1.55129,-1.551294 4.05086,-0.724382 3.6771,1.21646 -0.35535,1.845212 -2.58188,2.26777 -4.2805,0.812384 z"
         id="path852"
         inkscape:connector-curvature="0" />
      <path
         style="fill:#a9d436;fill-rule:nonzero;stroke-width:0.88826817"
         d="m 158.25064,126.90592 c 0,-1.14969 -0.24164,-4.44739 -0.53698,-7.3282 -0.50233,-4.89983 -0.40201,-5.29517 1.55447,-6.12611 1.15029,-0.48856 2.79034,-2.28731 3.64455,-3.99721 l 1.55308,-3.10896 0.001,3.2759 c 0.002,3.69931 -2.18521,13.8005 -3.71404,17.15588 -1.27405,2.79616 -2.50249,2.85936 -2.50249,0.12867 z m -3.53435,-24.08855 c -1.64947,-2.20144 -3.62755,-4.184789 -4.39575,-4.407419 -0.76819,-0.22259 -4.83304,-1.20433 -9.033,-2.18151 -7.97444,-1.85533 -17.01578,-5.411901 -18.0622,-7.105055 -0.99561,-1.610919 2.27014,-1.152405 6.60072,0.926722 2.19846,1.055489 4.65985,2.236119 5.46975,2.623628 0.8099,0.387505 4.8071,1.373425 8.88268,2.190975 4.07558,0.81752 8.40944,1.99835 9.63081,2.62403 3.28847,1.68467 6.42108,5.370559 6.0762,7.149399 -0.5438,2.80499 -2.11898,2.25017 -5.16921,-1.82077 z m 8.06488,-0.73158 c -1.1236,-1.87097 -1.10467,-1.8899 0.42487,-0.4249 0.88047,0.84333 1.40966,1.72453 1.17597,1.95822 -0.23366,0.23366 -0.95406,-0.45633 -1.60084,-1.53332 z M 116.61156,83.187955 c -4.30882,-5.477772 -2.78104,-15.878441 3.29927,-22.460425 2.53484,-2.743985 2.76265,-2.853162 1.49622,-0.717029 -2.0592,3.473352 -1.04519,3.992422 1.78489,0.913704 1.40261,-1.525837 1.08394,-0.828901 -0.79563,1.740114 -1.72442,2.356954 -3.58843,5.658332 -4.14225,7.336404 -0.55381,1.678071 -1.37444,2.823904 -1.82361,2.546302 -0.44918,-0.277601 -0.81668,0.330831 -0.81668,1.352101 0,1.021246 0.53878,2.063591 1.19728,2.316265 0.65851,0.252699 2.13394,1.739106 3.27873,3.303141 1.45719,1.990823 1.59627,2.449312 0.46373,1.528708 -1.51835,-1.234212 -1.57901,-1.138732 -0.98748,1.554467 0.7695,3.503492 -0.4668,3.748813 -2.95447,0.586248 z m 2.5238,-18.026887 c -0.0645,-1.155677 -2.57024,3.929425 -2.56708,5.209513 0.002,0.732842 0.58723,-0.01259 1.30093,-1.656443 0.7137,-1.643878 1.28346,-3.24276 1.26615,-3.55307 z m 41.27458,8.663276 c -0.76571,-1.23892 1.5464,-2.768157 2.59693,-1.717628 0.85446,0.854458 0.0312,2.705209 -1.20316,2.705209 -0.43087,0 -1.05808,-0.444414 -1.39377,-0.987581 z m -13.17716,-3.315428 c -0.25655,-0.415105 0.73741,-1.908109 2.20881,-3.317795 2.23559,-2.141848 2.8121,-2.346657 3.50788,-1.246273 1.42128,2.247752 1.02863,-3.33046 -0.43344,-6.157813 -1.29339,-2.501131 -6.08437,-5.405281 -8.91715,-5.405281 -0.82686,0 -1.71588,0.81261 -1.97561,1.805805 -0.45514,1.740466 -0.55658,1.750412 -2.80371,0.274605 -1.28232,-0.842145 -3.53065,-1.452943 -4.99629,-1.357338 -2.02972,0.132443 -2.34726,-0.03575 -1.33241,-0.705145 1.01231,-0.667804 0.59313,-0.882256 -1.74481,-0.892579 -2.87017,-0.01259 -2.97776,-0.113055 -1.59905,-1.49177 1.08206,-1.082054 1.78765,-1.223385 2.63308,-0.527405 0.63521,0.522897 4.19955,0.960614 7.92076,0.9727 11.47306,0.03726 16.68379,3.67529 15.53689,10.847626 -0.31389,1.96295 -0.18904,4.28211 0.2774,5.15369 0.73631,1.375795 0.51758,1.536186 -1.65925,1.216687 -1.37905,-0.202441 -3.32845,0.07151 -4.332,0.608507 -1.00355,0.537099 -2.03455,0.636884 -2.2911,0.221829 z"
         id="path850"
         inkscape:connector-curvature="0" />
      <path
         style="fill:#9cc433;fill-rule:nonzero;stroke-width:0.88826817"
         d="m 158.24087,126.10942 c -0.006,-1.58778 -0.24117,-4.28589 -0.52396,-5.99581 -0.45643,-2.75982 -0.10623,-3.52502 3.11873,-6.81431 4.18633,-4.2699 4.40771,-3.74302 2.28071,5.42839 -2.23586,9.64084 -4.85441,13.60546 -4.87548,7.38173 z m -3.56137,-23.34114 c -1.62923,-2.17444 -3.59076,-4.135699 -4.35896,-4.358329 -0.76819,-0.22259 -4.83304,-1.20433 -9.033,-2.18151 -7.92966,-1.84493 -17.01436,-5.40961 -18.04772,-7.081613 -0.32768,-0.5302 2.1194,0.187837 5.43796,1.595458 6.276,2.662225 13.51407,4.861615 19.00803,5.775865 4.22609,0.70329 11.4531,5.522869 11.4531,7.637899 0,3.04627 -1.4829,2.58476 -4.45941,-1.38777 z M 116.64835,83.234738 c -2.26586,-2.880582 -3.30956,-9.24975 -2.06252,-12.586556 0.84068,-2.249464 0.88479,-2.134622 0.44293,1.153135 -0.37601,2.797717 0.0411,4.762656 1.7839,8.404306 2.57788,5.386473 2.5206,6.44244 -0.16432,3.029115 z m 43.91435,-9.163184 c -0.28355,-0.458817 0.30222,-1.048036 1.30174,-1.309397 1.10658,-0.289385 1.68887,-0.09014 1.48895,0.509679 -0.4454,1.336212 -2.15612,1.826427 -2.79069,0.799718 z m -13.41393,-3.698556 c -0.52708,-0.852846 0.0888,-1.234211 1.58897,-0.983879 0.38621,0.06446 1.40705,-0.260026 2.26854,-0.721084 0.95298,-0.510031 2.06936,-0.520052 2.85089,-0.02568 0.99276,0.628097 0.8173,0.815783 -0.77246,0.826283 -1.13135,0.0076 -2.80591,0.4144 -3.72124,0.904288 -1.11248,0.595363 -1.84673,0.595363 -2.2147,0 z m -30.62698,-5.001179 c 0.0108,-0.426235 0.79433,-1.774282 1.74105,-2.995652 1.63581,-2.110349 1.69624,-2.122838 1.21666,-0.251289 -0.50542,1.972543 -2.99489,4.705323 -2.95771,3.246815 z m 36.56288,-4.670928 c -2.96142,-5.269137 -10.48196,-8.258696 -11.45126,-4.552108 -0.44459,1.700104 -0.5592,1.709672 -3.02578,0.252624 -1.41003,-0.83293 -2.56369,-1.803464 -2.56369,-2.156729 0,-1.044713 7.71489,-1.889603 11.23107,-1.229957 4.32182,0.810772 8.31083,4.844917 8.31083,8.404861 0,1.503227 -0.12625,2.733133 -0.28057,2.733133 -0.1543,0 -1.15358,-1.553334 -2.2206,-3.451824 z m -23.25861,-8.983934 c 0,-0.488553 0.37613,-0.888273 0.83585,-0.888273 0.45971,0 1.08288,0.39972 1.38482,0.888273 0.30194,0.488553 -0.0742,0.888274 -0.83584,0.888274 -0.76166,0 -1.38483,-0.399721 -1.38483,-0.888274 z"
         id="path848"
         inkscape:connector-curvature="0" />
      <path
         style="fill:#a2aa31;fill-rule:nonzero;stroke-width:0.88826817"
         d="m 158.24087,126.10942 c -0.006,-1.58778 -0.25754,-4.38582 -0.56036,-6.21787 -0.44017,-2.66305 -0.27222,-3.33101 0.83756,-3.33101 0.76347,0 2.2584,-1.22218 3.32207,-2.71596 1.06365,-1.49376 2.13523,-2.51463 2.38126,-2.2686 0.246,0.246 -0.0227,2.56743 -0.59761,5.15867 -2.32719,10.49288 -5.36124,15.77687 -5.38292,9.37477 z m -3.32123,-22.92775 c -2.74731,-3.363399 -2.52606,-4.493039 0.28602,-1.46035 1.25654,1.35512 2.15591,2.7886 1.9986,3.1855 -0.15732,0.39693 -1.18539,-0.3794 -2.28462,-1.72515 z M 140.48528,55.270027 c 0,-0.488553 0.42331,-0.888273 0.94069,-0.888273 0.51738,0 0.69365,0.39972 0.39171,0.888273 -0.30194,0.488553 -0.72525,0.888274 -0.94069,0.888274 -0.21543,0 -0.39171,-0.399721 -0.39171,-0.888274 z"
         id="path846"
         inkscape:connector-curvature="0" />
    </g>
  </g>
</svg>
